# xmcd
#
# Track frame offsets: 
#        150
#        13982
#        55158
#        78830
#        94451
#        118782
#        137002
#        157165
#        198159
#        209966
#        226541
#        284703
#        311017
#
# Disc length: 4787 seconds
#
# Revision: 0
# Processed by: cddbd v1.5.2PL0 Copyright (c) Steve Scherf et al.
# Submitted via: ExactAudioCopyFreeDBPlugin 1.0
#
DISCID=c012b10d
DTITLE=Billy T.K. - Move On Up
DYEAR=2009
DGENRE=New Zealand: Country/Blues
TTITLE0=Billy T.K. and Powerhouse - Bottle of Red Wine
TTITLE1=Billy T.K. and Powerhouse - Move On Up (Parts 1 and 2)
TTITLE2=Billy T.K. and Powerhouse - Hum Along and Dance
TTITLE3=Billy T.K. and Powerhouse - Into the Mystic
TTITLE4=Billy T.K. and Powerhouse - Marbles
TTITLE5=Billy T.K. and Powerhouse - Guajira
TTITLE6=Billy T.K. and Powerhouse - Goodbye Post Office Tower Goodbye
TTITLE7=Billy T.K. and Powerhouse - Southern Man
TTITLE8=Billy T.K. and Powerhouse - Dance With the Spirit
TTITLE9=Billy T.K. and Powerhouse - Rhythm of Your Love
TTITLE10=Billy T.K. and Powerhouse - Heaven's Melody
TTITLE11=Billy T.K. and Powerhouse - Beyond the Material Sky
TTITLE12=Billy T.K. and Powerhouse - Race Into the Infinite
EXTD=
EXTT0=
EXTT1=
EXTT2=
EXTT3=
EXTT4=
EXTT5=
EXTT6=
EXTT7=
EXTT8=
EXTT9=
EXTT10=
EXTT11=
EXTT12=
PLAYORDER=
